<?xml version="1.0" encoding="UTF-8" standalone="no"?>
<!DOCTYPE svg PUBLIC "-//W3C//DTD SVG 1.1//EN" "http://www.w3.org/Graphics/SVG/1.1/DTD/svg11.dtd">
<svg width="100%" height="100%" viewBox="0 0 800 800" version="1.1" xmlns="http://www.w3.org/2000/svg" xmlns:xlink="http://www.w3.org/1999/xlink" xml:space="preserve" xmlns:serif="http://www.serif.com/" style="fill-rule:evenodd;clip-rule:evenodd;stroke-linejoin:round;stroke-miterlimit:2;">
    <g transform="matrix(33.1521,0,0,33.1521,-20149.5,-6421.13)">
        <g id="SVGRepo_iconCarrier">
            <path d="M622.668,208L624.51,208C624.785,208 625,207.776 625,207.5C625,207.232 624.78,207 624.51,207L621.49,207C621.354,207 621.233,207.055 621.145,207.143C621.057,207.235 621,207.357 621,207.49L621,210.51C621,210.785 621.224,211 621.5,211C621.768,211 622,210.78 622,210.51L622,208.747L626.78,213.526C626.975,213.722 627.285,213.715 627.48,213.52C627.67,213.33 627.678,213.011 627.487,212.819L622.668,208ZM616.959,208L615.117,208C614.842,208 614.627,207.776 614.627,207.5C614.627,207.232 614.846,207 615.117,207L618.136,207C618.272,207 618.394,207.055 618.482,207.143C618.57,207.235 618.627,207.357 618.627,207.49L618.627,210.51C618.627,210.785 618.403,211 618.127,211C617.858,211 617.627,210.78 617.627,210.51L617.627,208.747L612.847,213.526C612.651,213.722 612.342,213.715 612.146,213.52C611.957,213.33 611.948,213.011 612.14,212.819L616.959,208ZM622.668,203.67L624.51,203.67C624.785,203.67 625,203.894 625,204.17C625,204.438 624.78,204.67 624.51,204.67L621.49,204.67C621.354,204.67 621.233,204.615 621.145,204.526C621.057,204.434 621,204.313 621,204.179L621,201.16C621,200.885 621.224,200.67 621.5,200.67C621.768,200.67 622,200.889 622,201.16L622,202.923L626.78,198.143C626.975,197.948 627.285,197.955 627.48,198.15C627.67,198.339 627.678,198.659 627.487,198.85L622.668,203.67ZM616.959,203.67L615.117,203.67C614.842,203.67 614.627,203.894 614.627,204.17C614.627,204.438 614.846,204.67 615.117,204.67L618.136,204.67C618.272,204.67 618.394,204.615 618.482,204.526C618.57,204.434 618.627,204.313 618.627,204.179L618.627,201.16C618.627,200.885 618.403,200.67 618.127,200.67C617.858,200.67 617.627,200.889 617.627,201.16L617.627,202.923L612.847,198.143C612.651,197.948 612.342,197.955 612.146,198.15C611.957,198.339 611.948,198.659 612.14,198.85L616.959,203.67Z" style="fill:rgb(72,202,228);"/>
        </g>
    </g>
</svg>
